<svg width="441" height="750" viewBox="0 0 441 750" fill="none" xmlns="http://www.w3.org/2000/svg">
<path d="M79.04 144.4C84.4 144.4 88.76 143.72 92.12 142.36C95.56 141 98.24 139.24 100.16 137.08C102.08 134.92 103.4 132.48 104.12 129.76C104.84 127.04 105.2 124.28 105.2 121.48C105.2 118.28 104.76 115.4 103.88 112.84C103.08 110.28 101.64 108.12 99.56 106.36C97.56 104.6 94.88 103.24 91.52 102.28C88.16 101.32 83.92 100.84 78.8 100.84H50.48V144.4H79.04ZM50.48 30.52V73.72H71.6C76.08 73.72 80.12 73.4 83.72 72.76C87.32 72.12 90.36 71 92.84 69.4C95.4 67.8 97.32 65.6 98.6 62.8C99.96 60 100.64 56.48 100.64 52.24C100.64 48.08 100.12 44.64 99.08 41.92C98.04 39.12 96.44 36.88 94.28 35.2C92.12 33.52 89.36 32.32 86 31.6C82.72 30.88 78.8 30.52 74.24 30.52H50.48ZM74.24 0.159998C86.32 0.159998 96.6 1.28 105.08 3.52C113.56 5.76 120.48 8.92 125.84 13C131.2 17.08 135.08 22.04 137.48 27.88C139.96 33.72 141.2 40.24 141.2 47.44C141.2 51.36 140.64 55.16 139.52 58.84C138.4 62.44 136.64 65.84 134.24 69.04C131.84 72.16 128.76 75.04 125 77.68C121.24 80.32 116.72 82.6 111.44 84.52C122.96 87.32 131.48 91.84 137 98.08C142.52 104.32 145.28 112.4 145.28 122.32C145.28 129.76 143.84 136.68 140.96 143.08C138.08 149.48 133.84 155.08 128.24 159.88C122.72 164.6 115.88 168.32 107.72 171.04C99.56 173.68 90.24 175 79.76 175H9.92V0.159998H74.24ZM260.054 108.16L243.854 60.28C242.654 57.24 241.374 53.68 240.014 49.6C238.654 45.44 237.294 40.96 235.934 36.16C234.734 41.04 233.454 45.56 232.094 49.72C230.734 53.88 229.454 57.48 228.254 60.52L212.174 108.16H260.054ZM324.494 175H293.054C289.534 175 286.694 174.2 284.534 172.6C282.374 170.92 280.734 168.8 279.614 166.24L269.294 135.76H202.814L192.494 166.24C191.614 168.48 190.014 170.52 187.694 172.36C185.454 174.12 182.654 175 179.294 175H147.614L215.294 0.159998H256.814L324.494 175ZM127.76 320.76C128.72 320.76 129.68 320.96 130.64 321.36C131.6 321.68 132.52 322.28 133.4 323.16L149.48 340.08C142.44 349.28 133.6 356.24 122.96 360.96C112.4 365.6 99.88 367.92 85.4 367.92C72.12 367.92 60.2 365.68 49.64 361.2C39.16 356.64 30.24 350.4 22.88 342.48C15.6 334.48 10 325.04 6.08 314.16C2.16 303.2 0.2 291.32 0.2 278.52C0.2 265.48 2.32 253.52 6.56 242.64C10.8 231.68 16.76 222.24 24.44 214.32C32.12 206.4 41.32 200.24 52.04 195.84C62.76 191.44 74.56 189.24 87.44 189.24C94 189.24 100.16 189.84 105.92 191.04C111.76 192.16 117.2 193.76 122.24 195.84C127.28 197.84 131.92 200.28 136.16 203.16C140.4 206.04 144.16 209.16 147.44 212.52L133.76 230.88C132.88 232 131.84 233.04 130.64 234C129.44 234.88 127.76 235.32 125.6 235.32C124.16 235.32 122.8 235 121.52 234.36C120.24 233.72 118.88 232.96 117.44 232.08C116 231.12 114.4 230.12 112.64 229.08C110.96 227.96 108.92 226.96 106.52 226.08C104.2 225.12 101.44 224.32 98.24 223.68C95.12 223.04 91.44 222.72 87.2 222.72C80.48 222.72 74.32 223.96 68.72 226.44C63.2 228.92 58.4 232.56 54.32 237.36C50.32 242.08 47.2 247.92 44.96 254.88C42.8 261.76 41.72 269.64 41.72 278.52C41.72 287.48 42.92 295.44 45.32 302.4C47.8 309.36 51.12 315.24 55.28 320.04C59.52 324.76 64.44 328.36 70.04 330.84C75.64 333.32 81.64 334.56 88.04 334.56C91.72 334.56 95.08 334.4 98.12 334.08C101.16 333.68 104 333.08 106.64 332.28C109.28 331.4 111.76 330.28 114.08 328.92C116.4 327.48 118.76 325.68 121.16 323.52C122.12 322.72 123.16 322.08 124.28 321.6C125.4 321.04 126.56 320.76 127.76 320.76ZM319.826 191.16V366H279.026V292.08H207.986V366H167.186V191.16H207.986V264.24H279.026V191.16H319.826ZM50.72 413.36V454.16H105.68V484.16H50.72V525.8H122.48V557H9.92V382.16H122.48V413.36H50.72ZM252.858 524.6V557H147.498V382.16H188.058V524.6H252.858ZM440.973 469.52C440.973 482.16 438.773 493.92 434.373 504.8C430.053 515.68 423.933 525.16 416.013 533.24C408.093 541.24 398.533 547.52 387.333 552.08C376.213 556.64 363.853 558.92 350.253 558.92C336.653 558.92 324.253 556.64 313.053 552.08C301.853 547.52 292.253 541.24 284.253 533.24C276.333 525.16 270.173 515.68 265.773 504.8C261.453 493.92 259.293 482.16 259.293 469.52C259.293 456.88 261.453 445.12 265.773 434.24C270.173 423.36 276.333 413.92 284.253 405.92C292.253 397.92 301.853 391.64 313.053 387.08C324.253 382.52 336.653 380.24 350.253 380.24C363.853 380.24 376.213 382.56 387.333 387.2C398.533 391.76 408.093 398.04 416.013 406.04C423.933 414.04 430.053 423.48 434.373 434.36C438.773 445.24 440.973 456.96 440.973 469.52ZM399.453 469.52C399.453 460.88 398.333 453.12 396.093 446.24C393.853 439.28 390.613 433.4 386.373 428.6C382.213 423.8 377.093 420.12 371.013 417.56C364.933 415 358.013 413.72 350.253 413.72C342.413 413.72 335.413 415 329.253 417.56C323.173 420.12 318.013 423.8 313.773 428.6C309.613 433.4 306.413 439.28 304.173 446.24C301.933 453.12 300.813 460.88 300.813 469.52C300.813 478.24 301.933 486.08 304.173 493.04C306.413 499.92 309.613 505.76 313.773 510.56C318.013 515.36 323.173 519.04 329.253 521.6C335.413 524.08 342.413 525.32 350.253 525.32C358.013 525.32 364.933 524.08 371.013 521.6C377.093 519.04 382.213 515.36 386.373 510.56C390.613 505.76 393.853 499.92 396.093 493.04C398.333 486.08 399.453 478.24 399.453 469.52ZM66.8 655.36C72.32 655.36 77 654.68 80.84 653.32C84.76 651.88 87.96 649.92 90.44 647.44C92.92 644.96 94.72 642.08 95.84 638.8C96.96 635.44 97.52 631.84 97.52 628C97.52 620.32 95 614.32 89.96 610C85 605.68 77.28 603.52 66.8 603.52H50.48V655.36H66.8ZM152.96 748H116.24C109.44 748 104.56 745.44 101.6 740.32L72.56 689.56C71.2 687.4 69.68 685.84 68 684.88C66.32 683.84 63.92 683.32 60.8 683.32H50.48V748H9.92V573.16H66.8C79.44 573.16 90.2 574.48 99.08 577.12C108.04 579.68 115.32 583.28 120.92 587.92C126.6 592.56 130.72 598.04 133.28 604.36C135.84 610.68 137.12 617.56 137.12 625C137.12 630.68 136.36 636.04 134.84 641.08C133.32 646.12 131.08 650.8 128.12 655.12C125.16 659.36 121.48 663.16 117.08 666.52C112.76 669.88 107.76 672.64 102.08 674.8C104.72 676.16 107.2 677.88 109.52 679.96C111.84 681.96 113.92 684.36 115.76 687.16L152.96 748ZM264.254 608.68C263.054 610.6 261.774 612.04 260.414 613C259.134 613.96 257.454 614.44 255.374 614.44C253.534 614.44 251.534 613.88 249.374 612.76C247.294 611.56 244.894 610.24 242.174 608.8C239.534 607.36 236.494 606.08 233.054 604.96C229.614 603.76 225.694 603.16 221.294 603.16C213.694 603.16 208.014 604.8 204.254 608.08C200.574 611.28 198.734 615.64 198.734 621.16C198.734 624.68 199.854 627.6 202.094 629.92C204.334 632.24 207.254 634.24 210.854 635.92C214.534 637.6 218.694 639.16 223.334 640.6C228.054 641.96 232.854 643.52 237.734 645.28C242.614 646.96 247.374 648.96 252.014 651.28C256.734 653.6 260.894 656.56 264.494 660.16C268.174 663.76 271.134 668.16 273.374 673.36C275.614 678.48 276.734 684.68 276.734 691.96C276.734 700.04 275.334 707.6 272.534 714.64C269.734 721.68 265.654 727.84 260.294 733.12C255.014 738.32 248.454 742.44 240.614 745.48C232.854 748.44 224.014 749.92 214.094 749.92C208.654 749.92 203.094 749.36 197.414 748.24C191.814 747.12 186.374 745.56 181.094 743.56C175.814 741.48 170.854 739.04 166.214 736.24C161.574 733.44 157.534 730.32 154.094 726.88L166.094 707.92C167.054 706.56 168.294 705.44 169.814 704.56C171.414 703.6 173.134 703.12 174.974 703.12C177.374 703.12 179.774 703.88 182.174 705.4C184.654 706.92 187.414 708.6 190.454 710.44C193.574 712.28 197.134 713.96 201.134 715.48C205.134 717 209.854 717.76 215.294 717.76C222.654 717.76 228.374 716.16 232.454 712.96C236.534 709.68 238.574 704.52 238.574 697.48C238.574 693.4 237.454 690.08 235.214 687.52C232.974 684.96 230.014 682.84 226.334 681.16C222.734 679.48 218.614 678 213.974 676.72C209.334 675.44 204.574 674.04 199.694 672.52C194.814 670.92 190.054 669 185.414 666.76C180.774 664.44 176.614 661.44 172.934 657.76C169.334 654 166.414 649.36 164.174 643.84C161.934 638.24 160.814 631.36 160.814 623.2C160.814 616.64 162.134 610.24 164.774 604C167.414 597.76 171.294 592.2 176.414 587.32C181.534 582.44 187.814 578.56 195.254 575.68C202.694 572.72 211.214 571.24 220.814 571.24C226.174 571.24 231.374 571.68 236.414 572.56C241.534 573.36 246.374 574.6 250.934 576.28C255.494 577.88 259.734 579.84 263.654 582.16C267.654 584.4 271.214 586.96 274.334 589.84L264.254 608.68Z" fill="#ECF5EB"/>
</svg>
