<svg width="474" height="561" viewBox="0 0 474 561" fill="none" xmlns="http://www.w3.org/2000/svg">
<path d="M80.04 146.4C85.4 146.4 89.76 145.72 93.12 144.36C96.56 143 99.24 141.24 101.16 139.08C103.08 136.92 104.4 134.48 105.12 131.76C105.84 129.04 106.2 126.28 106.2 123.48C106.2 120.28 105.76 117.4 104.88 114.84C104.08 112.28 102.64 110.12 100.56 108.36C98.56 106.6 95.88 105.24 92.52 104.28C89.16 103.32 84.92 102.84 79.8 102.84H51.48V146.4H80.04ZM51.48 32.52V75.72H72.6C77.08 75.72 81.12 75.4 84.72 74.76C88.32 74.12 91.36 73 93.84 71.4C96.4 69.8 98.32 67.6 99.6 64.8C100.96 62 101.64 58.48 101.64 54.24C101.64 50.08 101.12 46.64 100.08 43.92C99.04 41.12 97.44 38.88 95.28 37.2C93.12 35.52 90.36 34.32 87 33.6C83.72 32.88 79.8 32.52 75.24 32.52H51.48ZM75.24 2.16C87.32 2.16 97.6 3.28 106.08 5.52C114.56 7.76 121.48 10.92 126.84 15C132.2 19.08 136.08 24.04 138.48 29.88C140.96 35.72 142.2 42.24 142.2 49.44C142.2 53.36 141.64 57.16 140.52 60.84C139.4 64.44 137.64 67.84 135.24 71.04C132.84 74.16 129.76 77.04 126 79.68C122.24 82.32 117.72 84.6 112.44 86.52C123.96 89.32 132.48 93.84 138 100.08C143.52 106.32 146.28 114.4 146.28 124.32C146.28 131.76 144.84 138.68 141.96 145.08C139.08 151.48 134.84 157.08 129.24 161.88C123.72 166.6 116.88 170.32 108.72 173.04C100.56 175.68 91.24 177 80.76 177H10.92V2.16H75.24ZM261.054 110.16L244.854 62.28C243.654 59.24 242.374 55.68 241.014 51.6C239.654 47.44 238.294 42.96 236.934 38.16C235.734 43.04 234.454 47.56 233.094 51.72C231.734 55.88 230.454 59.48 229.254 62.52L213.174 110.16H261.054ZM325.494 177H294.054C290.534 177 287.694 176.2 285.534 174.6C283.374 172.92 281.734 170.8 280.614 168.24L270.294 137.76H203.814L193.494 168.24C192.614 170.48 191.014 172.52 188.694 174.36C186.454 176.12 183.654 177 180.294 177H148.614L216.294 2.16H257.814L325.494 177ZM451.26 131.76C452.22 131.76 453.18 131.96 454.14 132.36C455.1 132.68 456.02 133.28 456.9 134.16L472.98 151.08C465.94 160.28 457.1 167.24 446.46 171.96C435.9 176.6 423.38 178.92 408.9 178.92C395.62 178.92 383.7 176.68 373.14 172.2C362.66 167.64 353.74 161.4 346.38 153.48C339.1 145.48 333.5 136.04 329.58 125.16C325.66 114.2 323.7 102.32 323.7 89.52C323.7 76.48 325.82 64.52 330.06 53.64C334.3 42.68 340.26 33.24 347.94 25.32C355.62 17.4 364.82 11.24 375.54 6.83999C386.26 2.43999 398.06 0.239994 410.94 0.239994C417.5 0.239994 423.66 0.839993 429.42 2.03999C435.26 3.15999 440.7 4.75999 445.74 6.83999C450.78 8.84 455.42 11.28 459.66 14.16C463.9 17.04 467.66 20.16 470.94 23.52L457.26 41.88C456.38 43 455.34 44.04 454.14 45C452.94 45.88 451.26 46.32 449.1 46.32C447.66 46.32 446.3 46 445.02 45.36C443.74 44.72 442.38 43.96 440.94 43.08C439.5 42.12 437.9 41.12 436.14 40.08C434.46 38.96 432.42 37.96 430.02 37.08C427.7 36.12 424.94 35.32 421.74 34.68C418.62 34.04 414.94 33.72 410.7 33.72C403.98 33.72 397.82 34.96 392.22 37.44C386.7 39.92 381.9 43.56 377.82 48.36C373.82 53.08 370.7 58.92 368.46 65.88C366.3 72.76 365.22 80.64 365.22 89.52C365.22 98.48 366.42 106.44 368.82 113.4C371.3 120.36 374.62 126.24 378.78 131.04C383.02 135.76 387.94 139.36 393.54 141.84C399.14 144.32 405.14 145.56 411.54 145.56C415.22 145.56 418.58 145.4 421.62 145.08C424.66 144.68 427.5 144.08 430.14 143.28C432.78 142.4 435.26 141.28 437.58 139.92C439.9 138.48 442.26 136.68 444.66 134.52C445.62 133.72 446.66 133.08 447.78 132.6C448.9 132.04 450.06 131.76 451.26 131.76ZM163.56 193.16V368H122.76V294.08H51.72V368H10.92V193.16H51.72V266.24H122.76V193.16H163.56ZM238.283 224.36V265.16H293.243V295.16H238.283V336.8H310.042V368H197.483V193.16H310.042V224.36H238.283ZM440.421 335.6V368H335.061V193.16H375.621V335.6H440.421ZM182.52 471.52C182.52 484.16 180.32 495.92 175.92 506.8C171.6 517.68 165.48 527.16 157.56 535.24C149.64 543.24 140.08 549.52 128.88 554.08C117.76 558.64 105.4 560.92 91.8 560.92C78.2 560.92 65.8 558.64 54.6 554.08C43.4 549.52 33.8 543.24 25.8 535.24C17.88 527.16 11.72 517.68 7.32 506.8C3 495.92 0.84 484.16 0.84 471.52C0.84 458.88 3 447.12 7.32 436.24C11.72 425.36 17.88 415.92 25.8 407.92C33.8 399.92 43.4 393.64 54.6 389.08C65.8 384.52 78.2 382.24 91.8 382.24C105.4 382.24 117.76 384.56 128.88 389.2C140.08 393.76 149.64 400.04 157.56 408.04C165.48 416.04 171.6 425.48 175.92 436.36C180.32 447.24 182.52 458.96 182.52 471.52ZM141 471.52C141 462.88 139.88 455.12 137.64 448.24C135.4 441.28 132.16 435.4 127.92 430.6C123.76 425.8 118.64 422.12 112.56 419.56C106.48 417 99.56 415.72 91.8 415.72C83.96 415.72 76.96 417 70.8 419.56C64.72 422.12 59.56 425.8 55.32 430.6C51.16 435.4 47.96 441.28 45.72 448.24C43.48 455.12 42.36 462.88 42.36 471.52C42.36 480.24 43.48 488.08 45.72 495.04C47.96 501.92 51.16 507.76 55.32 512.56C59.56 517.36 64.72 521.04 70.8 523.6C76.96 526.08 83.96 527.32 91.8 527.32C99.56 527.32 106.48 526.08 112.56 523.6C118.64 521.04 123.76 517.36 127.92 512.56C132.16 507.76 135.4 501.92 137.64 495.04C139.88 488.08 141 480.24 141 471.52ZM263.269 466.36C268.789 466.36 273.469 465.68 277.309 464.32C281.229 462.88 284.429 460.92 286.909 458.44C289.389 455.96 291.189 453.08 292.309 449.8C293.429 446.44 293.989 442.84 293.989 439C293.989 431.32 291.469 425.32 286.429 421C281.469 416.68 273.749 414.52 263.269 414.52H246.949V466.36H263.269ZM349.429 559H312.709C305.909 559 301.029 556.44 298.069 551.32L269.029 500.56C267.669 498.4 266.149 496.84 264.469 495.88C262.789 494.84 260.389 494.32 257.269 494.32H246.949V559H206.389V384.16H263.269C275.909 384.16 286.669 385.48 295.549 388.12C304.509 390.68 311.789 394.28 317.389 398.92C323.069 403.56 327.189 409.04 329.749 415.36C332.309 421.68 333.589 428.56 333.589 436C333.589 441.68 332.829 447.04 331.309 452.08C329.789 457.12 327.549 461.8 324.589 466.12C321.629 470.36 317.949 474.16 313.549 477.52C309.229 480.88 304.229 483.64 298.549 485.8C301.189 487.16 303.669 488.88 305.989 490.96C308.309 492.96 310.389 495.36 312.229 498.16L349.429 559ZM460.723 419.68C459.523 421.6 458.243 423.04 456.883 424C455.603 424.96 453.923 425.44 451.843 425.44C450.003 425.44 448.003 424.88 445.843 423.76C443.763 422.56 441.363 421.24 438.643 419.8C436.003 418.36 432.963 417.08 429.523 415.96C426.083 414.76 422.163 414.16 417.763 414.16C410.163 414.16 404.483 415.8 400.723 419.08C397.043 422.28 395.203 426.64 395.203 432.16C395.203 435.68 396.323 438.6 398.563 440.92C400.803 443.24 403.723 445.24 407.323 446.92C411.003 448.6 415.163 450.16 419.803 451.6C424.523 452.96 429.323 454.52 434.203 456.28C439.083 457.96 443.843 459.96 448.483 462.28C453.203 464.6 457.363 467.56 460.963 471.16C464.643 474.76 467.603 479.16 469.843 484.36C472.083 489.48 473.203 495.68 473.203 502.96C473.203 511.04 471.803 518.6 469.003 525.64C466.203 532.68 462.123 538.84 456.763 544.12C451.483 549.32 444.923 553.44 437.083 556.48C429.323 559.44 420.483 560.92 410.563 560.92C405.123 560.92 399.563 560.36 393.883 559.24C388.283 558.12 382.843 556.56 377.563 554.56C372.283 552.48 367.323 550.04 362.683 547.24C358.043 544.44 354.003 541.32 350.563 537.88L362.563 518.92C363.523 517.56 364.763 516.44 366.283 515.56C367.883 514.6 369.603 514.12 371.443 514.12C373.843 514.12 376.243 514.88 378.643 516.4C381.123 517.92 383.883 519.6 386.923 521.44C390.043 523.28 393.603 524.96 397.603 526.48C401.603 528 406.323 528.76 411.763 528.76C419.123 528.76 424.843 527.16 428.923 523.96C433.003 520.68 435.043 515.52 435.043 508.48C435.043 504.4 433.923 501.08 431.683 498.52C429.443 495.96 426.483 493.84 422.803 492.16C419.203 490.48 415.083 489 410.443 487.72C405.803 486.44 401.043 485.04 396.163 483.52C391.283 481.92 386.523 480 381.883 477.76C377.243 475.44 373.083 472.44 369.403 468.76C365.803 465 362.883 460.36 360.643 454.84C358.403 449.24 357.283 442.36 357.283 434.2C357.283 427.64 358.603 421.24 361.243 415C363.883 408.76 367.763 403.2 372.883 398.32C378.003 393.44 384.283 389.56 391.723 386.68C399.163 383.72 407.683 382.24 417.283 382.24C422.643 382.24 427.843 382.68 432.883 383.56C438.003 384.36 442.843 385.6 447.403 387.28C451.963 388.88 456.203 390.84 460.123 393.16C464.123 395.4 467.683 397.96 470.803 400.84L460.723 419.68Z" fill="#ECF5EB"/>
</svg>
