<svg width="406" height="559" viewBox="0 0 406 559" fill="none" xmlns="http://www.w3.org/2000/svg">
<path d="M210.48 0.159998V175H174.72V74.44C174.72 72.12 174.76 69.6 174.84 66.88C175 64.16 175.24 61.4 175.56 58.6L129.12 148.48C127.68 151.28 125.72 153.4 123.24 154.84C120.84 156.28 118.08 157 114.96 157H109.44C106.32 157 103.52 156.28 101.04 154.84C98.64 153.4 96.72 151.28 95.28 148.48L48.84 58.36C49.08 61.24 49.28 64.08 49.44 66.88C49.6 69.6 49.68 72.12 49.68 74.44V175H13.92V0.159998H44.88C46.64 0.159998 48.16 0.199995 49.44 0.279989C50.8 0.359993 52 0.599995 53.04 0.999994C54.08 1.39999 55 2.04 55.8 2.92C56.68 3.72 57.52 4.87999 58.32 6.39999L103.32 95.08C104.92 98.12 106.44 101.28 107.88 104.56C109.4 107.84 110.84 111.2 112.2 114.64C113.56 111.12 114.96 107.68 116.4 104.32C117.92 100.96 119.52 97.76 121.2 94.72L166.08 6.39999C166.88 4.87999 167.68 3.72 168.48 2.92C169.36 2.04 170.32 1.39999 171.36 0.999994C172.4 0.599995 173.56 0.359993 174.84 0.279989C176.2 0.199995 177.76 0.159998 179.52 0.159998H210.48ZM336.711 108.16L320.511 60.28C319.311 57.24 318.031 53.68 316.671 49.6C315.311 45.44 313.951 40.96 312.591 36.16C311.391 41.04 310.111 45.56 308.751 49.72C307.391 53.88 306.111 57.48 304.911 60.52L288.831 108.16H336.711ZM401.151 175H369.711C366.191 175 363.351 174.2 361.191 172.6C359.031 170.92 357.391 168.8 356.271 166.24L345.951 135.76H279.471L269.151 166.24C268.271 168.48 266.671 170.52 264.351 172.36C262.111 174.12 259.311 175 255.951 175H224.271L291.951 0.159998H333.471L401.151 175ZM110.52 226.68C109.32 228.6 108.04 230.04 106.68 231C105.4 231.96 103.72 232.44 101.64 232.44C99.8 232.44 97.8 231.88 95.64 230.76C93.56 229.56 91.16 228.24 88.44 226.8C85.8 225.36 82.76 224.08 79.32 222.96C75.88 221.76 71.96 221.16 67.56 221.16C59.96 221.16 54.28 222.8 50.52 226.08C46.84 229.28 45 233.64 45 239.16C45 242.68 46.12 245.6 48.36 247.92C50.6 250.24 53.52 252.24 57.12 253.92C60.8 255.6 64.96 257.16 69.6 258.6C74.32 259.96 79.12 261.52 84 263.28C88.88 264.96 93.64 266.96 98.28 269.28C103 271.6 107.16 274.56 110.76 278.16C114.44 281.76 117.4 286.16 119.64 291.36C121.88 296.48 123 302.68 123 309.96C123 318.04 121.6 325.6 118.8 332.64C116 339.68 111.92 345.84 106.56 351.12C101.28 356.32 94.72 360.44 86.88 363.48C79.12 366.44 70.28 367.92 60.36 367.92C54.92 367.92 49.36 367.36 43.68 366.24C38.08 365.12 32.64 363.56 27.36 361.56C22.08 359.48 17.12 357.04 12.48 354.24C7.84 351.44 3.8 348.32 0.36 344.88L12.36 325.92C13.32 324.56 14.56 323.44 16.08 322.56C17.68 321.6 19.4 321.12 21.24 321.12C23.64 321.12 26.04 321.88 28.44 323.4C30.92 324.92 33.68 326.6 36.72 328.44C39.84 330.28 43.4 331.96 47.4 333.48C51.4 335 56.12 335.76 61.56 335.76C68.92 335.76 74.64 334.16 78.72 330.96C82.8 327.68 84.84 322.52 84.84 315.48C84.84 311.4 83.72 308.08 81.48 305.52C79.24 302.96 76.28 300.84 72.6 299.16C69 297.48 64.88 296 60.24 294.72C55.6 293.44 50.84 292.04 45.96 290.52C41.08 288.92 36.32 287 31.68 284.76C27.04 282.44 22.88 279.44 19.2 275.76C15.6 272 12.68 267.36 10.44 261.84C8.2 256.24 7.08 249.36 7.08 241.2C7.08 234.64 8.4 228.24 11.04 222C13.68 215.76 17.56 210.2 22.68 205.32C27.8 200.44 34.08 196.56 41.52 193.68C48.96 190.72 57.48 189.24 67.08 189.24C72.44 189.24 77.64 189.68 82.68 190.56C87.8 191.36 92.64 192.6 97.2 194.28C101.76 195.88 106 197.84 109.92 200.16C113.92 202.4 117.48 204.96 120.6 207.84L110.52 226.68ZM272.451 223.32H223.251V366H182.691V223.32H133.491V191.16H272.451V223.32ZM333.861 222.36V263.16H388.821V293.16H333.861V334.8H405.621V366H293.061V191.16H405.621V222.36H333.861ZM70.8 464.36C76.32 464.36 81 463.68 84.84 462.32C88.76 460.88 91.96 458.92 94.44 456.44C96.92 453.96 98.72 451.08 99.84 447.8C100.96 444.44 101.52 440.84 101.52 437C101.52 429.32 99 423.32 93.96 419C89 414.68 81.28 412.52 70.8 412.52H54.48V464.36H70.8ZM156.96 557H120.24C113.44 557 108.56 554.44 105.6 549.32L76.56 498.56C75.2 496.4 73.68 494.84 72 493.88C70.32 492.84 67.92 492.32 64.8 492.32H54.48V557H13.92V382.16H70.8C83.44 382.16 94.2 383.48 103.08 386.12C112.04 388.68 119.32 392.28 124.92 396.92C130.6 401.56 134.72 407.04 137.28 413.36C139.84 419.68 141.12 426.56 141.12 434C141.12 439.68 140.36 445.04 138.84 450.08C137.32 455.12 135.08 459.8 132.12 464.12C129.16 468.36 125.48 472.16 121.08 475.52C116.76 478.88 111.76 481.64 106.08 483.8C108.72 485.16 111.2 486.88 113.52 488.96C115.84 490.96 117.92 493.36 119.76 496.16L156.96 557ZM268.254 417.68C267.054 419.6 265.774 421.04 264.414 422C263.134 422.96 261.454 423.44 259.374 423.44C257.534 423.44 255.534 422.88 253.374 421.76C251.294 420.56 248.894 419.24 246.174 417.8C243.534 416.36 240.494 415.08 237.054 413.96C233.614 412.76 229.694 412.16 225.294 412.16C217.694 412.16 212.014 413.8 208.254 417.08C204.574 420.28 202.734 424.64 202.734 430.16C202.734 433.68 203.854 436.6 206.094 438.92C208.334 441.24 211.254 443.24 214.854 444.92C218.534 446.6 222.694 448.16 227.334 449.6C232.054 450.96 236.854 452.52 241.734 454.28C246.614 455.96 251.374 457.96 256.014 460.28C260.734 462.6 264.894 465.56 268.494 469.16C272.174 472.76 275.134 477.16 277.374 482.36C279.614 487.48 280.734 493.68 280.734 500.96C280.734 509.04 279.334 516.6 276.534 523.64C273.734 530.68 269.654 536.84 264.294 542.12C259.014 547.32 252.454 551.44 244.614 554.48C236.854 557.44 228.014 558.92 218.094 558.92C212.654 558.92 207.094 558.36 201.414 557.24C195.814 556.12 190.374 554.56 185.094 552.56C179.814 550.48 174.854 548.04 170.214 545.24C165.574 542.44 161.534 539.32 158.094 535.88L170.094 516.92C171.054 515.56 172.294 514.44 173.814 513.56C175.414 512.6 177.134 512.12 178.974 512.12C181.374 512.12 183.774 512.88 186.174 514.4C188.654 515.92 191.414 517.6 194.454 519.44C197.574 521.28 201.134 522.96 205.134 524.48C209.134 526 213.854 526.76 219.294 526.76C226.654 526.76 232.374 525.16 236.454 521.96C240.534 518.68 242.574 513.52 242.574 506.48C242.574 502.4 241.454 499.08 239.214 496.52C236.974 493.96 234.014 491.84 230.334 490.16C226.734 488.48 222.614 487 217.974 485.72C213.334 484.44 208.574 483.04 203.694 481.52C198.814 479.92 194.054 478 189.414 475.76C184.774 473.44 180.614 470.44 176.934 466.76C173.334 463 170.414 458.36 168.174 452.84C165.934 447.24 164.814 440.36 164.814 432.2C164.814 425.64 166.134 419.24 168.774 413C171.414 406.76 175.294 401.2 180.414 396.32C185.534 391.44 191.814 387.56 199.254 384.68C206.694 381.72 215.214 380.24 224.814 380.24C230.174 380.24 235.374 380.68 240.414 381.56C245.534 382.36 250.374 383.6 254.934 385.28C259.494 386.88 263.734 388.84 267.654 391.16C271.654 393.4 275.214 395.96 278.334 398.84L268.254 417.68Z" fill="#ECF5EB"/>
</svg>
