<svg width="160" height="557" viewBox="0 0 160 557" fill="none" xmlns="http://www.w3.org/2000/svg">
<path d="M62.6 85.96C73.16 85.96 80.76 83.44 85.4 78.4C90.04 73.36 92.36 66.32 92.36 57.28C92.36 53.28 91.76 49.64 90.56 46.36C89.36 43.08 87.52 40.28 85.04 37.96C82.64 35.56 79.56 33.72 75.8 32.44C72.12 31.16 67.72 30.52 62.6 30.52H41.48V85.96H62.6ZM62.6 0.159998C74.92 0.159998 85.48 1.64 94.28 4.59999C103.16 7.47999 110.44 11.48 116.12 16.6C121.88 21.72 126.12 27.76 128.84 34.72C131.56 41.68 132.92 49.2 132.92 57.28C132.92 66 131.52 74 128.72 81.28C125.92 88.56 121.64 94.8 115.88 100C110.12 105.2 102.8 109.28 93.92 112.24C85.12 115.12 74.68 116.56 62.6 116.56H41.48V175H0.92V0.159998H62.6ZM153.56 191.16V366H112.76V292.08H41.72V366H0.92V191.16H41.72V264.24H112.76V191.16H153.56ZM159.56 469.52C159.56 482.16 157.36 493.84 152.96 504.56C148.64 515.2 142.52 524.44 134.6 532.28C126.68 540.04 117.12 546.12 105.92 550.52C94.8 554.84 82.44 557 68.84 557H0.92V382.16H68.84C82.44 382.16 94.8 384.36 105.92 388.76C117.12 393.16 126.68 399.24 134.6 407C142.52 414.76 148.64 424 152.96 434.72C157.36 445.36 159.56 456.96 159.56 469.52ZM118.04 469.52C118.04 460.88 116.92 453.08 114.68 446.12C112.44 439.16 109.2 433.28 104.96 428.48C100.8 423.6 95.68 419.88 89.6 417.32C83.52 414.68 76.6 413.36 68.84 413.36H41.72V525.8H68.84C76.6 525.8 83.52 524.52 89.6 521.96C95.68 519.32 100.8 515.6 104.96 510.8C109.2 505.92 112.44 500 114.68 493.04C116.92 486.08 118.04 478.24 118.04 469.52Z" fill="#ECF5EB"/>
</svg>
