<svg width="754" height="720" viewBox="0 0 754 720" fill="none" xmlns="http://www.w3.org/2000/svg">
<path d="M754 0H0V720H754V0Z" fill="#4A6D8B" fill-opacity="0.12"/>
<path opacity="0.69" d="M566.348 249.397H438.982C428.211 249.397 419.48 241.019 419.48 230.686C419.48 220.352 428.211 211.975 438.982 211.975H482.037C492.839 211.975 501.54 203.627 501.54 193.264C501.54 182.9 492.839 174.552 482.037 174.552H290.464C279.662 174.552 270.961 182.9 270.961 193.264C270.961 203.627 279.662 211.975 290.464 211.975H332.019C342.82 211.975 351.521 220.323 351.521 230.686C351.521 241.049 342.82 249.397 332.019 249.397H198.502C187.701 249.397 179 257.745 179 268.108C179 278.471 187.701 286.819 198.502 286.819H251.609C262.41 286.819 271.111 295.167 271.111 305.53C271.111 315.893 262.41 324.241 251.609 324.241H229.181C218.38 324.241 209.679 332.589 209.679 342.952C209.679 353.315 218.38 361.663 229.181 361.663H303.14V399.085H246.133C235.332 399.085 226.631 407.433 226.631 417.796C226.631 428.159 235.332 436.507 246.133 436.507H350.096C360.897 436.507 369.598 444.855 369.598 455.218C369.598 465.581 360.897 473.929 350.096 473.929H291.964C281.163 473.929 272.461 482.277 272.461 492.64C272.461 503.003 281.163 511.351 291.964 511.351H514.441C525.243 511.351 533.944 503.003 533.944 492.64C533.944 482.277 525.243 473.929 514.441 473.929H458.559V436.507H476.262C487.063 436.507 495.764 428.159 495.764 417.796C495.764 407.433 487.063 399.085 476.262 399.085H458.559V361.663H532.518C543.32 361.663 552.021 353.315 552.021 342.952C552.021 332.589 543.32 324.241 532.518 324.241H501.54C490.769 324.241 482.037 315.863 482.037 305.53C482.037 295.196 490.769 286.819 501.54 286.819H566.498C577.299 286.819 586 278.471 586 268.108C585.85 257.817 577.149 249.397 566.348 249.397Z" fill="#1A1E29" fill-opacity="0.6"/>
<path d="M393.382 324.772H353.618C342.753 324.772 334 316.235 334 305.636C334 295.037 342.753 286.5 353.618 286.5H393.382C404.247 286.5 413 295.037 413 305.636C413 316.235 404.247 324.772 393.382 324.772Z" fill="#4A6D8B" fill-opacity="0.12"/>
<path opacity="0.69" d="M210.384 511.351H246.616C257.352 511.351 266 503.027 266 492.693C266 482.359 257.352 474.035 246.616 474.035H210.384C199.648 474.035 191 482.359 191 492.693C191 503.027 199.648 511.351 210.384 511.351Z" fill="#151720"/>
<path opacity="0.69" d="M151.5 286.5C162.3 286.5 171 278.175 171 267.842C171 257.508 162.3 249.184 151.5 249.184C140.7 249.184 132 257.508 132 267.842C132 278.175 140.7 286.5 151.5 286.5Z" fill="#151720"/>
<path opacity="0.5" d="M205.303 397.49H184.697C173.788 397.49 165 389.166 165 378.832C165 368.499 173.788 360.174 184.697 360.174H205.303C216.212 360.174 225 368.499 225 378.832C225 389.094 216.212 397.49 205.303 397.49Z" fill="#825D7E"/>
<path d="M496.464 399.404H412.536C401.716 399.404 393 390.866 393 380.267C393 369.669 401.716 361.131 412.536 361.131H496.464C507.284 361.131 516 369.669 516 380.267C516 390.866 507.284 399.404 496.464 399.404Z" fill="#4A6D8B" fill-opacity="0.12"/>
<path d="M294.464 358.261H210.536C199.716 358.261 191 349.936 191 339.603C191 329.269 199.716 320.945 210.536 320.945H294.464C305.284 320.945 314 329.269 314 339.603C314 349.936 305.284 358.261 294.464 358.261Z" fill="#684463"/>
<path d="M546.464 474.035H462.536C451.716 474.035 443 465.497 443 454.899C443 444.3 451.716 435.763 462.536 435.763H546.464C557.284 435.763 566 444.3 566 454.899C566 465.497 557.284 474.035 546.464 474.035Z" fill="#4A6D8B" fill-opacity="0.12"/>
<path opacity="0.56" d="M672.32 545.796H89.7544C84.352 545.796 80 541.741 80 536.706C80 531.672 84.352 527.617 89.7544 527.617H672.245C677.647 527.617 681.999 531.672 681.999 536.706C682.074 541.741 677.647 545.796 672.32 545.796Z" fill="#2D4659"/>
<path d="M348 464.467H333V536.228H348V464.467Z" fill="#8BBF98"/>
<path d="M356 464.467H348V536.228H356V464.467Z" fill="#63916E"/>
<path d="M432 464.467H417V536.228H432V464.467Z" fill="#8BBF98"/>
<path d="M441 464.467H432V536.228H441V464.467Z" fill="#63916E"/>
<path d="M495 464.467H480V536.228H495V464.467Z" fill="#8BBF98"/>
<path d="M504 464.467H495V536.228H504V464.467Z" fill="#63916E"/>
<path d="M329.338 427.151H311V303.722H329.338C331.902 303.722 334 305.66 334 308.028V422.846C334 425.214 331.98 427.151 329.338 427.151Z" fill="#63B481"/>
<path d="M323.5 427.151H140.5C138.025 427.151 136 425.214 136 422.846V308.028C136 305.66 138.025 303.722 140.5 303.722H323.5C325.975 303.722 328 305.66 328 308.028V422.846C328 425.214 325.975 427.151 323.5 427.151Z" fill="#63B481"/>
<path d="M319 418.54V311.378L144 311.377V418.54H319Z" fill="#34515B"/>
<path d="M147 418.54V311.377H144V418.54H147Z" fill="#06C34B"/>
<path d="M319 311.377H316V418.54H319V311.377Z" fill="#284249"/>
<path d="M247 427.151H234V536.228H247V427.151Z" fill="#63B481"/>
<path d="M242 427.151H228V536.228H242V427.151Z" fill="#C0DDC0"/>
<path d="M242 427.151H228V431.935H242V427.151Z" fill="#C0DDC0"/>
<path d="M288 536.228H196V527.617C196 522.88 200.049 519.005 204.998 519.005H279.002C283.951 519.005 288 522.88 288 527.617V536.228Z" fill="#C0DDC0"/>
<path d="M280 536.228H188V527.617C188 522.88 192.049 519.005 196.998 519.005H271.002C275.951 519.005 280 522.88 280 527.617V536.228Z" fill="#63B481"/>
<path d="M432 450.115H333V464.467H432V450.115Z" fill="#8BBF98"/>
<path d="M504 450.115H432V464.467H504V450.115Z" fill="#63916E"/>
<path d="M425 441.503H328V450.115H425V441.503Z" fill="#9FD6A3"/>
<path d="M432 450.115H333V452.985H432V450.115Z" fill="#63916E"/>
<path d="M511 441.503H425V450.115H511V441.503Z" fill="#83B78D"/>
<path d="M504 450.115H432V452.985H504V450.115Z" fill="#577F5D"/>
<path d="M459.774 359.218L453 360.118L461.226 420.454L468 419.553L459.774 359.218Z" fill="#DD5858"/>
<path d="M460.572 361.131L452 362.109L454.428 377.397L463 376.419L460.572 361.131Z" fill="#EF6562"/>
<path d="M452.828 363.045L451 363.199L451.172 364.002L453 363.847L452.828 363.045Z" fill="#E8E8E8"/>
<path d="M453.369 375.411L452.843 375.483L451 364.146L452.228 364.002L453.983 374.761C454.071 374.978 453.808 375.339 453.369 375.411Z" fill="#E8E8E8"/>
<path d="M461.891 376.44L455 377.464L455.108 378.354L462 377.33L461.891 376.44Z" fill="#D35050"/>
<path d="M444 377.575L437.894 379.311L435.104 371.049C434.727 369.938 435.406 368.758 436.612 368.411L438.421 367.925C439.627 367.578 440.909 368.203 441.286 369.313L444 377.575Z" fill="#E8E8E8"/>
<path d="M445.083 377.397L436 380.181L440.916 395.576L450 392.793L445.083 377.397Z" fill="#35393D"/>
<path d="M440.588 392.706L448 383.988L446.412 379.311L439 388.028L440.588 392.706Z" fill="#808284"/>
<path d="M450.164 392.706L442 395.15L451.836 425.238L460 422.793L450.164 392.706Z" fill="#3B4044"/>
<path opacity="0.66" d="M445.817 393.663L443 394.496L453.183 425.238L456 424.405L445.817 393.663Z" fill="#6D6F70"/>
<path d="M482.2 367.258L479.009 366.872L475 372.539L484 373.57L482.2 367.258Z" fill="#C5E1DF"/>
<path d="M472.122 425.193L469.778 424.906C468.001 424.691 466.788 423.182 467.031 421.602L475.192 372.613L484 373.762L475.839 422.751C475.596 424.332 473.899 425.481 472.122 425.193Z" fill="#B3DBAD"/>
<path d="M468.975 425.238L468.369 425.165C467.536 425.02 466.931 424.297 467.006 423.428L474.88 372.613L477 372.902L468.975 425.238Z" fill="#68A575"/>
<path d="M473.593 425.216L473 425.144L480.926 373.57L483 373.855L475.296 424.001C475.222 424.787 474.481 425.359 473.593 425.216Z" fill="#68A575"/>
<path d="M482 366.872L481.325 364.332C481.25 363.951 480.725 363.887 480.5 364.205L479 366.491L482 366.872Z" fill="#6F5A66"/>
<path d="M481.854 367.071L480 366.872L481.171 373.304L484 373.57L481.854 367.071Z" fill="#A5CECA"/>
<path d="M482 441.503H440V398.967C440 398.155 440.675 397.49 441.5 397.49H480.5C481.325 397.49 482 398.155 482 398.967V441.503Z" fill="#F2E07C"/>
<path d="M476 397.49V441.503H482V398.967C482 398.155 481.325 397.49 480.5 397.49H476Z" fill="#DFBB4D"/>
<path d="M453 419.497H429V441.503H453V419.497Z" fill="#6E7EE0"/>
<path d="M432 419.497H429V441.503H432V419.497Z" fill="#7A8CE2"/>
<path d="M449 441.503H453V419.497H449V441.503Z" fill="#6373C1"/>
<path d="M453 441.503H455V419.497H453V441.503Z" fill="#DFBB4D"/>
<path d="M377 424.281H359V441.503H377V424.281Z" fill="#EC958B"/>
<path d="M377 424.281H359V425.238H377V424.281Z" fill="#EF6562"/>
<path d="M386 424.281H377V441.503H386V424.281Z" fill="#EF6562"/>
<path d="M369.968 434.464H367.032L366.581 435.763H365L367.634 429.065H369.366L372 435.763H370.419L369.968 434.464ZM368.462 430.637L367.409 433.439H369.516L368.462 430.637Z" fill="white"/>
<path d="M402 424.281H385V441.503H402V424.281Z" fill="#E8B58B"/>
<path d="M411 424.281H402V441.503H411V424.281Z" fill="#E09D6C"/>
<path d="M393.568 429.065C395.189 429.065 395.932 430.022 395.932 431.115C395.932 431.935 395.459 432.755 394.446 433.029L396 435.763H394.446L392.959 433.166H392.351V435.763H391V429.065H393.568ZM393.568 430.158H392.487V432.14H393.568C394.311 432.14 394.649 431.73 394.649 431.115C394.581 430.568 394.243 430.158 393.568 430.158Z" fill="white"/>
<path d="M373 407.058H355V424.281H373V407.058Z" fill="#1BB1B2"/>
<path d="M382 407.058H373V424.281H382V407.058Z" fill="#19A5A1"/>
<path d="M365.469 412.799H367L364.375 419.497H362.625L360 412.799H361.531L363.5 418.13L365.469 412.799Z" fill="white"/>
<path d="M146 531.401C136.727 537.942 123.745 536.001 116.994 527.017C110.243 518.032 112.246 505.453 121.519 498.912L146 531.401Z" fill="#C0DDC0"/>
<path d="M121 498.955C130.273 492.414 143.255 494.355 150.006 503.34C156.757 512.324 154.754 524.903 145.481 531.444L121 498.955Z" fill="#F2E07C"/>
<path opacity="0.25" d="M136.789 496.042C144.9 498.859 150.639 506.043 150.639 514.494C150.639 525.411 141.074 534.215 129.214 534.215C128.142 534.215 127.071 534.144 126 534.003C128.372 534.849 130.897 535.271 133.575 535.271C145.435 535.271 155 526.467 155 515.551C155 505.62 147.119 497.45 136.789 496.042Z" fill="#A59A63"/>
<path d="M215.179 373.222C215.631 372.415 216.008 371.607 216.385 370.8C216.762 369.993 217.139 369.113 217.441 368.232C218.119 366.544 218.722 364.783 219.25 363.022C219.401 362.582 219.551 362.141 219.627 361.701L220.004 360.38C220.23 359.5 220.456 358.619 220.607 357.665C220.833 356.785 220.984 355.831 221.135 354.95C221.285 354.069 221.361 353.116 221.511 352.235L221.587 351.648L221.964 351.354C222.341 350.987 222.944 350.621 223.622 350.621C224.301 350.547 224.828 350.767 225.205 350.987C225.959 351.428 226.487 351.868 226.864 352.382C227.693 353.336 228.296 354.29 228.899 355.317C230.03 357.298 230.935 359.28 231.839 361.334C232.669 363.389 233.498 365.443 234.176 367.498C234.855 369.553 235.533 371.681 235.986 373.882C236.061 374.249 235.835 374.616 235.458 374.689C235.081 374.763 234.704 374.543 234.629 374.176C234.026 372.121 233.272 370.14 232.442 368.085C231.613 366.104 230.709 364.123 229.804 362.215C228.824 360.307 227.844 358.399 226.638 356.638C226.035 355.757 225.432 354.95 224.753 354.29C224.452 353.996 224.075 353.703 223.848 353.629C223.773 353.556 223.698 353.629 223.848 353.629C223.924 353.629 224.075 353.556 223.999 353.556L224.452 352.675C224.301 353.629 224.225 354.583 224.075 355.537C223.924 356.491 223.773 357.445 223.547 358.399C223.396 359.353 223.095 360.307 222.868 361.187L222.491 362.582C222.341 363.022 222.265 363.536 222.115 363.976C221.587 365.81 220.908 367.645 220.23 369.406C219.853 370.287 219.476 371.167 219.099 372.048C218.722 372.928 218.27 373.809 217.818 374.689C217.441 375.423 216.536 375.717 215.782 375.276C215.028 374.836 214.802 373.956 215.179 373.222Z" fill="#D1D1D1"/>
<path d="M215.39 363.394L234.608 361.139C235.3 361.053 235.915 361.66 235.992 362.44C236.069 363.221 235.607 363.915 234.915 364.002L215.698 366.864C214.852 366.951 214.083 366.343 214.006 365.389C213.93 364.435 214.545 363.568 215.39 363.394Z" fill="#D1D1D1"/>
<path opacity="0.23" d="M216.724 527.617H199.276C197.986 527.617 197 526.787 197 525.703C197 524.619 197.986 523.789 199.276 523.789H216.724C218.014 523.789 219 524.619 219 525.703C219 526.724 218.014 527.617 216.724 527.617Z" fill="#C0DDC0"/>
<path opacity="0.23" d="M233.638 527.617H228.362C227.024 527.617 226 526.787 226 525.703C226 524.619 227.024 523.789 228.362 523.789H233.638C234.976 523.789 236 524.619 236 525.703C236 526.724 234.976 527.617 233.638 527.617Z" fill="#C0DDC0"/>
<path opacity="0.23" d="M270.805 533.358H251.195C249.951 533.358 249 532.321 249 530.966C249 529.61 249.951 528.573 251.195 528.573H270.805C272.049 528.573 273 529.61 273 530.966C273 532.241 272.049 533.358 270.805 533.358Z" fill="#C0DDC0"/>
<path opacity="0.23" d="M262.857 533.358H259.143C257.929 533.358 257 532.321 257 530.966C257 529.61 257.929 528.573 259.143 528.573H262.857C264.071 528.573 265 529.61 265 530.966C265 532.241 264.071 533.358 262.857 533.358Z" fill="#C0DDC0"/>
<path opacity="0.18" d="M359.736 456.812H344.264C343.595 456.812 343 456.419 343 455.856C343 455.349 343.521 454.899 344.264 454.899H359.736C360.405 454.899 361 455.293 361 455.856C360.926 456.419 360.405 456.812 359.736 456.812Z" fill="#63916E"/>
<path opacity="0.18" d="M371.682 456.812H364.318C363.62 456.812 363 456.419 363 455.856C363 455.349 363.543 454.899 364.318 454.899H371.682C372.38 454.899 373 455.293 373 455.856C372.922 456.419 372.38 456.812 371.682 456.812Z" fill="#63916E"/>
<path opacity="0.18" d="M381.72 461.597H366.28C365.602 461.597 365 461.203 365 460.64C365 460.133 365.527 459.683 366.28 459.683H381.72C382.397 459.683 383 460.077 383 460.64C382.925 461.146 382.397 461.597 381.72 461.597Z" fill="#63916E"/>
<path opacity="0.18" d="M408.747 461.597H404.253C403.589 461.597 403 461.203 403 460.64C403 460.133 403.516 459.683 404.253 459.683H408.747C409.411 459.683 410 460.077 410 460.64C409.926 461.146 409.411 461.597 408.747 461.597Z" fill="#63916E"/>
<path opacity="0.18" d="M413.747 457.769H409.253C408.589 457.769 408 457.375 408 456.812C408 456.306 408.516 455.856 409.253 455.856H413.747C414.411 455.856 415 456.25 415 456.812C415 457.319 414.484 457.769 413.747 457.769Z" fill="#63916E"/>
<path opacity="0.26" d="M461.736 461.597H444.264C443.595 461.597 443 461.203 443 460.64C443 460.133 443.52 459.683 444.264 459.683H461.736C462.405 459.683 463 460.077 463 460.64C462.926 461.146 462.405 461.597 461.736 461.597Z" fill="#8BBF98"/>
<path opacity="0.26" d="M486.747 461.597H482.253C481.589 461.597 481 461.203 481 460.64C481 460.133 481.516 459.683 482.253 459.683H486.747C487.411 459.683 488 460.077 488 460.64C487.926 461.146 487.411 461.597 486.747 461.597Z" fill="#8BBF98"/>
<path opacity="0.26" d="M466.669 457.769H456.331C455.627 457.769 455 457.178 455 456.334C455 455.574 455.548 454.899 456.331 454.899H466.669C467.373 454.899 468 455.49 468 456.334C468 457.178 467.452 457.769 466.669 457.769Z" fill="#8BBF98"/>
</svg>
