<svg width="25" height="20" viewBox="0 0 25 20" fill="none" xmlns="http://www.w3.org/2000/svg">
<path d="M24.5521 2.53245C23.6312 2.92356 22.6567 3.18123 21.6596 3.29732C22.7075 2.69761 23.4955 1.74486 23.8759 0.617761C22.8852 1.18396 21.8031 1.58124 20.676 1.79257C20.2013 1.30641 19.6305 0.919664 18.9982 0.655828C18.3659 0.391992 17.6853 0.256579 16.9978 0.257821C14.2142 0.257821 11.9615 2.42746 11.9615 5.10202C11.9595 5.47404 12.0031 5.84496 12.0914 6.20684C10.0954 6.11538 8.14084 5.61773 6.35286 4.74571C4.56488 3.87369 2.98282 2.64651 1.70791 1.14267C1.26064 1.87961 1.0241 2.72044 1.02301 3.57727C1.02301 5.25699 1.91967 6.74175 3.27362 7.61161C2.47144 7.593 1.6857 7.38549 0.983109 7.00671V7.0667C0.983109 9.41631 2.72222 11.371 5.02398 11.8159C4.59114 11.9287 4.1451 11.9858 3.69714 11.9859C3.37929 11.9864 3.06215 11.9563 2.75035 11.8959C3.39024 13.8206 5.25262 15.2204 7.45874 15.2603C5.66611 16.6106 3.46524 17.3404 1.20203 17.335C0.800307 17.3344 0.398955 17.311 0 17.265C2.30237 18.7019 4.97869 19.4619 7.7104 19.4547C16.987 19.4547 22.055 12.0709 22.055 5.66693C22.055 5.45696 22.0494 5.247 22.0391 5.04203C23.0228 4.35817 23.8738 3.50834 24.5521 2.53245Z" fill="#E7E7E7" fill-opacity="0.81"/>
</svg>
