<svg width="256" height="263" viewBox="0 0 256 263" fill="none" xmlns="http://www.w3.org/2000/svg">
<path d="M253.978 135.284C254.014 158.104 247.858 180.507 236.168 200.105C224.477 219.703 207.69 235.763 187.593 246.574C167.496 257.385 144.843 262.542 122.047 261.495C99.2505 260.449 77.1652 253.238 58.1435 240.631C53.9802 237.889 49.988 234.896 46.189 231.669C30.1886 218.13 17.8106 200.821 10.1717 181.303C2.53287 161.786 -0.126471 140.673 2.43364 119.87C4.99375 99.0678 12.6928 79.2299 24.836 62.1466C36.9793 45.0632 53.1847 31.2719 71.9902 22.017C87.1428 14.5764 103.631 10.2436 120.484 9.27374C137.337 8.30388 154.214 10.7166 170.12 16.3697C194.657 25.1188 215.888 41.2433 230.901 62.5326C245.914 83.822 253.975 109.234 253.978 135.284Z" fill="white"/>
<path d="M127.73 263C102.692 263.042 78.1985 255.689 57.3234 241.863C53.1102 239.083 49.0691 236.051 45.2221 232.783C29.0421 219.095 16.5233 201.595 8.79449 181.861C1.06563 162.127 -1.63025 140.78 0.949933 119.744C3.53011 98.7084 11.3052 78.6455 23.5742 61.3645C35.8432 44.0834 52.2202 30.1277 71.2288 20.7554H71.3461C86.676 13.2297 103.357 8.84776 120.406 7.86782C137.456 6.88788 154.529 9.32974 170.62 15.0495C170.62 15.0495 170.62 15.0495 170.737 15.0495C199.07 25.1771 222.916 44.9834 238.072 70.9759C253.227 96.9683 258.718 127.477 253.576 157.123C248.434 186.768 232.99 213.646 209.966 233.016C186.942 252.387 157.819 263.005 127.73 263ZM72.7396 23.2637L72.6222 23.337C46.7988 36.0562 26.1678 57.3133 14.2262 83.5054C2.28454 109.697 -0.232961 139.213 7.10036 167.049C14.4337 194.885 31.1667 219.329 54.463 236.238C77.7594 253.147 106.186 261.48 134.924 259.825C163.662 258.17 190.944 246.629 212.146 227.158C233.347 207.686 247.163 181.483 251.253 152.989C255.342 124.495 249.453 95.4636 234.584 70.8155C219.714 46.1674 196.779 27.4191 169.667 17.7485H169.549C153.855 12.1859 137.208 9.81234 120.584 10.7669C103.96 11.7216 87.6942 15.9851 72.7396 23.3077V23.2637Z" fill="#093F68"/>
<path d="M118.533 150.539H136.722V174.346H118.533V150.539Z" fill="#F0E2C7"/>
<path d="M136.722 175.827H118.533C118.144 175.827 117.771 175.673 117.496 175.397C117.221 175.122 117.066 174.749 117.066 174.36V150.568C117.066 150.179 117.221 149.806 117.496 149.531C117.771 149.256 118.144 149.102 118.533 149.102H136.722C137.111 149.102 137.484 149.256 137.759 149.531C138.034 149.806 138.189 150.179 138.189 150.568V174.39C138.181 174.773 138.023 175.139 137.749 175.408C137.474 175.677 137.106 175.827 136.722 175.827ZM120 172.893H135.255V152.035H120V172.893Z" fill="#093F68"/>
<path d="M197.317 221.489V240.631C176.677 254.281 152.477 261.56 127.731 261.56C102.985 261.56 78.786 254.281 58.1456 240.631V221.489C58.1126 215.803 58.8227 210.137 60.2578 204.635C66.2571 181.885 84.0936 165.369 105.172 165.369H150.174C176.239 165.369 197.317 190.495 197.317 221.489Z" fill="#68E1FD"/>
<path d="M127.731 263C102.693 263.042 78.1993 255.689 57.3242 241.863C57.1204 241.729 56.9532 241.546 56.838 241.331C56.7227 241.116 56.663 240.875 56.6642 240.631V221.489C56.6547 215.673 57.3992 209.879 58.879 204.254C65.245 180.125 83.8149 163.902 105.216 163.902H150.218C176.987 163.902 198.769 189.733 198.769 221.489V240.631C198.77 240.875 198.711 241.116 198.595 241.331C198.48 241.546 198.313 241.729 198.109 241.863C177.234 255.689 152.741 263.042 127.702 263H127.731ZM59.6124 239.839C79.8731 253.055 103.541 260.092 127.731 260.092C151.922 260.092 175.589 253.055 195.85 239.839V221.489C195.85 191.346 175.388 166.836 150.232 166.836H105.23C85.2377 166.836 67.7533 182.178 61.7393 204.973C60.3175 210.348 59.6025 215.885 59.6124 221.445V239.839Z" fill="#093F68"/>
<path d="M85.5176 255.754C85.1286 255.754 84.7555 255.599 84.4804 255.324C84.2053 255.049 84.0508 254.676 84.0508 254.287V208.64C84.0508 208.251 84.2053 207.878 84.4804 207.602C84.7555 207.327 85.1286 207.173 85.5176 207.173C85.9066 207.173 86.2797 207.327 86.5548 207.602C86.8299 207.878 86.9844 208.251 86.9844 208.64V254.287C86.9844 254.676 86.8299 255.049 86.5548 255.324C86.2797 255.599 85.9066 255.754 85.5176 255.754Z" fill="#093F68"/>
<path d="M169.945 255.754C169.556 255.754 169.183 255.599 168.908 255.324C168.633 255.049 168.479 254.676 168.479 254.287V208.64C168.479 208.251 168.633 207.878 168.908 207.602C169.183 207.327 169.556 207.173 169.945 207.173C170.334 207.173 170.707 207.327 170.983 207.602C171.258 207.878 171.412 208.251 171.412 208.64V254.287C171.412 254.676 171.258 255.049 170.983 255.324C170.707 255.599 170.334 255.754 169.945 255.754Z" fill="#093F68"/>
<path d="M127.73 213.744L112.9 165.369H142.559L127.73 213.744Z" fill="#093F68"/>
<path d="M127.731 215.211C127.406 215.225 127.085 215.13 126.819 214.942C126.554 214.753 126.359 214.481 126.264 214.17L111.45 165.765C111.384 165.547 111.369 165.317 111.408 165.093C111.446 164.869 111.535 164.657 111.67 164.474C111.805 164.289 111.981 164.138 112.185 164.034C112.389 163.929 112.614 163.874 112.843 163.873H142.502C142.731 163.874 142.956 163.929 143.16 164.034C143.364 164.138 143.54 164.289 143.675 164.474C143.81 164.657 143.899 164.869 143.938 165.093C143.976 165.317 143.961 165.547 143.896 165.765L129.081 214.17C128.992 214.462 128.815 214.72 128.573 214.906C128.331 215.093 128.037 215.2 127.731 215.211ZM114.897 166.806L127.731 208.742L140.566 166.835L114.897 166.806Z" fill="#093F68"/>
<path d="M85.5148 254.111V254.287C75.8664 250.873 66.6739 246.287 58.1441 240.631C53.9808 237.889 49.9886 234.896 46.1895 231.669L32.7242 196.143C32.7242 196.143 21.7964 184.408 22.4565 175.71C23.1165 167.012 32.2695 159.575 36.3912 161.335C38.8408 162.406 46.5122 179.069 46.5122 179.069C50.3113 165.75 53.6703 166.175 56.1639 168.508C58.6575 170.84 52.3502 190.085 52.3502 190.085L60.3883 204.635L83.608 246.689C84.8765 248.956 85.5336 251.513 85.5148 254.111Z" fill="#F0E2C7"/>
<path d="M85.516 255.754C85.3468 255.758 85.1781 255.733 85.0173 255.68C75.2578 252.22 65.9578 247.58 57.3238 241.863C53.1107 239.083 49.0696 236.051 45.2226 232.783C45.0405 232.618 44.8998 232.412 44.8119 232.182L31.4346 196.978C29.8798 195.248 20.3161 184.32 20.9028 175.651C21.2458 172.719 22.2423 169.902 23.8187 167.406C25.3952 164.911 27.5115 162.801 30.0118 161.232C32.6227 159.663 35.0576 159.237 36.8911 160.029C39.0474 160.968 43.1398 168.83 46.1467 175.079C48.0829 169.476 50.0778 166.63 52.4687 165.97C53.2974 165.78 54.1619 165.816 54.972 166.074C55.7821 166.332 56.5082 166.803 57.0745 167.437C59.7148 169.93 56.2824 182.325 53.8475 189.938L84.7973 245.97C86.2138 248.45 86.9618 251.255 86.9682 254.111V254.287C86.9682 254.676 86.8136 255.049 86.5386 255.324C86.2635 255.599 85.8904 255.754 85.5014 255.754H85.516ZM47.3788 230.818C51.0439 233.917 54.8888 236.797 58.8933 239.443C66.697 244.616 75.0625 248.887 83.8292 252.175C83.6076 250.492 83.0754 248.866 82.2597 247.378L50.9872 190.759C50.892 190.583 50.8337 190.39 50.8161 190.19C50.7984 189.991 50.8217 189.79 50.8845 189.6C53.6128 181.166 55.9304 171.06 55.0209 169.476C53.9795 168.522 53.4368 168.669 53.2608 168.713C52.498 168.933 50.4298 170.4 47.8482 179.45C47.7653 179.738 47.5963 179.993 47.3639 180.182C47.1315 180.371 46.8469 180.485 46.5482 180.507C46.2495 180.529 45.9512 180.46 45.6932 180.307C45.4353 180.155 45.2301 179.928 45.1053 179.655C41.6436 172.145 37.0671 163.52 35.6883 162.626C34.9633 162.507 34.2215 162.539 33.5096 162.721C32.7978 162.903 32.1312 163.23 31.5519 163.682C29.4397 164.989 27.65 166.756 26.3166 168.851C24.9831 170.947 24.1403 173.316 23.8511 175.783C23.3084 183.748 33.6935 195.013 33.7962 195.116C33.9257 195.258 34.0299 195.422 34.1042 195.6L47.3788 230.818Z" fill="#093F68"/>
<path d="M124.501 156.274C167.25 156.274 201.905 121.62 201.905 78.8706C201.905 36.1217 167.25 1.4668 124.501 1.4668C81.7525 1.4668 47.0977 36.1217 47.0977 78.8706C47.0977 121.62 81.7525 156.274 124.501 156.274Z" fill="#F0E2C7"/>
<path d="M124.502 157.741C108.902 157.741 93.6535 153.116 80.6833 144.449C67.7131 135.783 57.6041 123.465 51.6346 109.053C45.665 94.6414 44.1031 78.7831 47.1464 63.4837C50.1896 48.1843 57.7013 34.131 68.7316 23.1007C79.7618 12.0705 93.8152 4.55875 109.115 1.51551C124.414 -1.52773 140.272 0.0341777 154.684 6.00371C169.096 11.9732 181.414 22.0823 190.08 35.0525C198.746 48.0227 203.372 63.2715 203.372 78.8707C203.349 99.7813 195.032 119.829 180.246 134.615C165.46 149.401 145.412 157.718 124.502 157.741ZM124.502 2.93366C109.483 2.93366 94.801 7.38729 82.3132 15.7314C69.8254 24.0754 60.0924 35.9352 54.3449 49.8108C48.5974 63.6865 47.0936 78.9549 50.0236 93.6852C52.9537 108.416 60.186 121.946 70.806 132.566C81.4259 143.186 94.9566 150.418 109.687 153.349C124.417 156.279 139.686 154.775 153.561 149.027C167.437 143.28 179.297 133.547 187.641 121.059C195.985 108.571 200.438 93.8896 200.438 78.8707C200.419 58.7369 192.412 39.4333 178.176 25.1965C163.939 10.9598 144.635 2.95308 124.502 2.93366Z" fill="#093F68"/>
<path d="M102.411 69.9377C108.009 69.9377 112.547 64.3425 112.547 57.4405C112.547 50.5384 108.009 44.9432 102.411 44.9432C96.8133 44.9432 92.2754 50.5384 92.2754 57.4405C92.2754 64.3425 96.8133 69.9377 102.411 69.9377Z" fill="#093F68"/>
<path d="M146.593 69.9377C152.191 69.9377 156.728 64.3425 156.728 57.4405C156.728 50.5384 152.191 44.9432 146.593 44.9432C140.995 44.9432 136.457 50.5384 136.457 57.4405C136.457 64.3425 140.995 69.9377 146.593 69.9377Z" fill="#093F68"/>
<path d="M72.6816 86.4981C75.122 98.4412 81.6126 109.175 91.0556 116.883C100.499 124.592 112.314 128.802 124.504 128.802C136.694 128.802 148.51 124.592 157.953 116.883C167.396 109.175 173.886 98.4412 176.327 86.4981" fill="#F0E2C7"/>
<path d="M124.504 131.001C111.822 130.979 99.5334 126.593 89.7037 118.58C79.8739 110.567 73.1018 99.4144 70.5249 86.9968C70.4082 86.4249 70.5235 85.8301 70.8453 85.3432C71.1671 84.8563 71.6692 84.5172 72.2411 84.4005C72.813 84.2838 73.4078 84.3991 73.8947 84.7209C74.3816 85.0427 74.7207 85.5448 74.8374 86.1167C77.1767 97.5624 83.3975 107.849 92.4475 115.236C101.498 122.624 112.821 126.659 124.504 126.659C136.186 126.659 147.51 122.624 156.56 115.236C165.61 107.849 171.831 97.5624 174.17 86.1167C174.287 85.5448 174.626 85.0427 175.113 84.7209C175.6 84.3991 176.194 84.2838 176.766 84.4005C177.338 84.5172 177.84 84.8563 178.162 85.3432C178.484 85.8301 178.599 86.4249 178.482 86.9968C175.901 99.4119 169.127 110.561 159.298 118.574C149.47 126.586 137.184 130.974 124.504 131.001Z" fill="#093F68"/>
<path d="M39.017 191.551C38.6859 191.563 38.3607 191.462 38.0943 191.264C37.828 191.067 37.6362 190.786 37.5502 190.466C36.3328 186.065 36.6995 182.706 38.6357 180.418C41.4079 177.118 46.3218 177.587 46.5271 177.617C46.9161 177.655 47.2738 177.847 47.5213 178.15C47.7689 178.453 47.8861 178.841 47.8472 179.23C47.8083 179.619 47.6165 179.977 47.3139 180.224C47.0113 180.472 46.6228 180.589 46.2338 180.55C46.2338 180.55 42.6401 180.228 40.8652 182.34C39.6038 183.807 39.3984 186.315 40.3812 189.674C40.4324 189.86 40.4464 190.054 40.4225 190.245C40.3986 190.436 40.3372 190.621 40.2418 190.789C40.1465 190.956 40.019 191.103 39.8667 191.222C39.7144 191.34 39.5404 191.427 39.3544 191.478C39.2445 191.513 39.1315 191.537 39.017 191.551Z" fill="#093F68"/>
<path d="M127.729 263C127.34 263 126.966 262.845 126.691 262.57C126.416 262.295 126.262 261.922 126.262 261.533V213.744C126.262 213.355 126.416 212.982 126.691 212.707C126.966 212.432 127.34 212.277 127.729 212.277C128.118 212.277 128.491 212.432 128.766 212.707C129.041 212.982 129.195 213.355 129.195 213.744V261.533C129.195 261.922 129.041 262.295 128.766 262.57C128.491 262.845 128.118 263 127.729 263Z" fill="#093F68"/>
<path d="M152.036 245.603C151.75 245.605 151.47 245.524 151.229 245.369L141.754 239.149C141.552 239.017 141.386 238.836 141.271 238.623C141.156 238.411 141.095 238.174 141.094 237.932V218.981C141.094 218.592 141.248 218.219 141.523 217.944C141.798 217.668 142.172 217.514 142.561 217.514H161.468C161.857 217.514 162.23 217.668 162.505 217.944C162.78 218.219 162.935 218.592 162.935 218.981V237.932C162.933 238.174 162.872 238.411 162.757 238.623C162.642 238.836 162.476 239.017 162.275 239.149L152.799 245.369C152.571 245.516 152.307 245.597 152.036 245.603ZM144.027 237.111L152.036 242.362L160.001 237.111V220.448H144.027V237.111Z" fill="#093F68"/>
</svg>
